<?xml version="1.0" encoding="UTF-8"?>
<svg xmlns="http://www.w3.org/2000/svg" xmlns:xlink="http://www.w3.org/1999/xlink" viewBox="0 0 54 41">
  <defs>
    <style>
      .cls-1 {
        fill: #d9a359;
      }

      .cls-2 {
        clip-path: url(#clippath-2);
      }

      .cls-3 {
        isolation: isolate;
      }

      .cls-4 {
        clip-path: url(#clippath-1);
      }

      .cls-5 {
        clip-path: url(#clippath-4);
      }

      .cls-6 {
        clip-path: url(#clippath);
      }

      .cls-7 {
        fill: none;
      }

      .cls-8 {
        clip-path: url(#clippath-3);
      }

      .cls-9 {
        clip-path: url(#clippath-5);
      }

      .cls-10 {
        mix-blend-mode: multiply;
      }
    </style>
    <clipPath id="clippath">
      <rect class="cls-7" x="-1056.22" y="279.9" width="1367" height="137"/>
    </clipPath>
    <clipPath id="clippath-1">
      <rect class="cls-7" x="-1057.22" y="-3102.66" width="1367" height="3712.56"/>
    </clipPath>
    <clipPath id="clippath-2">
      <rect class="cls-7" x="-1056.22" y="279.9" width="1364" height="329"/>
    </clipPath>
    <clipPath id="clippath-3">
      <rect class="cls-7" x="-1062.52" y="-3173.66" width="1381.3" height="3862.56"/>
    </clipPath>
    <clipPath id="clippath-4">
      <rect class="cls-7" x="-699" y="-2462" width="1371" height="915"/>
    </clipPath>
    <clipPath id="clippath-5">
      <rect class="cls-7" x="-696.84" y="-2461.32" width="1367" height="3378.56"/>
    </clipPath>
    <image id="image" width="7000" height="4666" xlink:href="../../white-parchment-paper.jpg"/>
  </defs>
  <g class="cls-3">
    <g id="Capa_1" data-name="Capa 1">
      <g class="cls-6">
        <g class="cls-10">
          <g class="cls-4">
            <use transform="translate(1051.07 -3557.09) rotate(90) scale(.61)" xlink:href="#image"/>
          </g>
        </g>
        <g class="cls-2">
          <g class="cls-10">
            <g class="cls-8">
              <use transform="translate(917.3 -3181.2) rotate(90) scale(.55)" xlink:href="#image"/>
            </g>
          </g>
        </g>
      </g>
      <g id="_5" data-name="5">
        <path class="cls-1" d="m48.75,18.83l-14.87-14.87c-.92-.92-2.4-.92-3.31,0-.92.92-.92,2.4,0,3.31l10.99,10.99H5.76v4.69s35.76,0,35.76,0l-10.95,10.85c-.92.92-.92,2.4,0,3.31s2.4.92,3.31,0l14.92-14.92c.49-.49.68-1.09.64-1.68,0-.61-.22-1.22-.68-1.68Z"/>
      </g>
      <g class="cls-5">
        <g class="cls-10">
          <g class="cls-9">
            <use transform="translate(1411.45 -2915.75) rotate(90) scale(.61)" xlink:href="#image"/>
          </g>
        </g>
      </g>
    </g>
  </g>
</svg>